<svg width="396" height="396" viewBox="0 0 396 396" fill="none" xmlns="http://www.w3.org/2000/svg">
<path fill-rule="evenodd" clip-rule="evenodd" d="M198 396C307.352 396 396 307.352 396 198C396 88.6476 307.352 0 198 0C88.6476 0 0 88.6476 0 198C0 307.352 88.6476 396 198 396ZM183.355 137.645C163.829 118.118 132.171 118.118 112.645 137.645C93.1184 157.171 93.1184 188.829 112.645 208.355L162.645 258.355L198 293.711L233.355 258.355L283.355 208.355C302.882 188.829 302.882 157.171 283.355 137.645C263.829 118.118 232.171 118.118 212.645 137.645L198 152.289L183.355 137.645Z" fill="#20C93C"/>
</svg>
